<?xml version="1.0" encoding="UTF-8" standalone="no"?>
<!-- Created with Inkscape (http://www.inkscape.org/) -->

<svg
   width="609.79303"
   height="142.58076"
   viewBox="0 0 609.79303 142.58076"
   version="1.1"
   id="svg1"
   xml:space="preserve"
   xmlns="http://www.w3.org/2000/svg"
   xmlns:svg="http://www.w3.org/2000/svg"><defs
     id="defs1" /><g
     id="layer1"><g
       id="g44"
       transform="translate(-458.1543,-431.01885)"><path
         id="path20"
         style="font-weight:bold;font-size:96px;font-family:'Chakra Petch';-inkscape-font-specification:'Chakra Petch, Bold';text-align:center;letter-spacing:0px;text-anchor:middle;fill:#0077cc;fill-opacity:1;stroke-width:18.8976;stroke-linejoin:round;stroke-dashoffset:29.6029;paint-order:fill markers stroke"
         d="m 468.71484,506.40039 -10.36914,10.36719 v 17.75976 l 10.36914,10.36914 h 25.43946 l 3.16797,3.16797 v 11.13477 l -3.26368,3.26562 h -19.87304 l -3.16797,-3.16796 v -5.66407 H 458.1543 v 9.59961 l 10.36718,10.36719 h 31.10547 l 10.5586,-10.56055 v -18.91015 l -10.36719,-10.36914 h -25.43945 l -3.16797,-3.16797 v -9.88868 l 3.16797,-3.16796 h 19.00781 l 3.16797,3.16796 v 5.76172 h 12.86328 v -9.69726 l -10.36719,-10.36719 z m 50.27149,0 v 11.03906 h 20.06445 v 56.16016 h 13.05469 v -56.16016 h 20.06445 v -11.03906 z m 61.98437,0 v 55.67969 l 11.51953,11.51953 h 31.67969 l 11.51953,-11.51953 v -55.67969 h -13.05468 v 51.16797 l -4.89649,4.89648 h -18.8164 l -4.89649,-4.89648 v -51.16797 z m 63.51953,0 v 67.19922 h 43.00782 l 11.51953,-11.51953 v -44.16016 l -11.51953,-11.51953 z m 63.32813,0 v 67.19922 h 48.57617 V 562.56055 H 720.875 V 545.2793 h 32.73438 V 534.43164 H 720.875 v -16.99219 h 35.51953 v -11.03906 z m 57.375,0 v 67.19922 h 12.57617 v -40.89649 h 0.19336 l 15.35938,31.48829 h 8.06445 l 15.45508,-31.48829 h 0.19336 v 40.89649 h 12.57422 v -67.19922 h -12.09571 l -20.0625,43.39258 h -0.19336 l -19.96679,-43.39258 z m 73.2168,0 v 67.19922 h 48.57617 V 562.56055 H 851.4668 V 545.2793 h 32.73632 V 534.43164 H 851.4668 v -16.99219 h 35.51953 v -11.03906 z m 57.37695,0 v 11.03906 h 20.0625 v 56.16016 h 13.05664 v -56.16016 h 20.06445 v -11.03906 z m 61.98242,0 v 67.19922 h 48.57617 V 562.56055 H 970.82617 V 545.2793 h 32.73633 v -10.84766 h -32.73633 v -16.99219 h 35.51953 v -11.03906 z m 57.37697,0 v 67.19922 h 13.0566 v -25.72852 h 20.9278 l 5.7597,6.4336 v 19.29492 h 13.0567 v -22.27149 l -6.9121,-7.58398 6.5273,-6.625 v -20.35156 l -10.2715,-10.36719 z m 13.0566,10.94336 h 23.1348 l 3.3613,3.35937 v 13.05665 l -3.3613,3.35937 h -23.1348 z m -370.65622,0.19141 h 23.51953 l 4.89648,4.89648 v 35.13672 l -4.89648,4.89648 h -23.51953 z" /><path
         id="path23"
         style="color:#000000;fill:#ff7f00;fill-opacity:1;stroke-linecap:round;stroke-linejoin:round;-inkscape-stroke:none;paint-order:fill markers stroke"
         d="m 797.01439,521.75731 c -0.16748,8.5e-4 -0.33435,-0.012 -0.49805,-0.0371 -0.98113,-0.15102 -1.8859,-0.78517 -2.31641,-1.75391 l -14.22265,-31.96875 h -20.55469 c -1.68764,0 -3.07814,-1.39392 -3.07812,-3.08008 0,-1.68622 1.39214,-3.07812 3.07812,-3.07812 h 22.55469 c 1.17493,0 2.31443,0.66645 2.81445,1.79101 l 10.20703,22.95117 6.4668,-72.74804 c 0.13362,-1.505 1.35784,-2.71027 2.87109,-2.80664 a 1.20012,1.20012 0 0 1 0.0176,-0.002 c 0.004,-2e-4 0.0624,-0.006 0.17969,-0.006 1.43271,0 2.6969,1.00753 3.00586,2.41993 l 10.23047,46.75976 2.55664,-11.08203 c 0.30153,-1.30736 1.42843,-2.27607 2.76562,-2.37891 1.37492,-0.10653 2.60233,0.73665 3.09375,1.96485 a 1.20012,1.20012 0 0 1 0.002,0 l 6.74414,16.89648 h 20.46875 c 1.68621,0 3.08008,1.39064 3.08008,3.07813 0,1.68758 -1.39381,3.07812 -3.08008,3.07812 h -22.55469 c -1.29236,0 -2.3964,-0.81877 -2.85742,-1.9707 a 1.20012,1.20012 0 0 1 -0.002,0 l -3.86914,-9.68555 -3.42773,14.84571 c -0.32132,1.39359 -1.58946,2.38453 -3.01563,2.38085 a 1.20012,1.20012 0 0 1 -0.002,0 c -1.43637,-0.008 -2.68401,-1.02491 -2.99023,-2.42382 l -8.86133,-40.50977 -5.74024,64.55664 c -0.12384,1.39076 -1.18206,2.53665 -2.56054,2.76563 a 1.20012,1.20012 0 0 1 -0.002,0 c -0.16834,0.0277 -0.33642,0.0421 -0.5039,0.043 z" /></g></g></svg>
